<?xml version="1.0" encoding="UTF-8"?><svg width="512" height="512" version="1.1" viewBox="0 0 512 512" xmlns="http://www.w3.org/2000/svg" xmlns:xlink="http://www.w3.org/1999/xlink"><!--Generated by IJSVG (https://github.com/iconjar/IJSVG)--><g transform="scale(8)"><path fill="#a6a5a5" d="M42,30h-8v-12c0,-1.104 -0.896,-2 -2,-2c-1.104,0 -2,0.896 -2,2v14c0,1.104 0.896,2 2,2h10c1.104,0 2,-0.896 2,-2c0,-1.104 -0.896,-2 -2,-2Z"></path><path fill="#a6a5a5" d="M32,6c-14.336,0 -26,11.664 -26,26c0,14.337 11.664,26 26,26c14.337,0 26,-11.663 26,-26c0,-14.336 -11.663,-26 -26,-26Zm2,47.905v-1.905c0,-1.104 -0.896,-2 -2,-2c-1.104,0 -2,0.896 -2,2v1.905c-10.537,-0.955 -18.95,-9.368 -19.905,-19.905h1.905c1.104,0 2,-0.896 2,-2c0,-1.104 -0.896,-2 -2,-2h-1.905c0.955,-10.537 9.368,-18.95 19.905,-19.905v1.905c0,1.104 0.896,2 2,2c1.104,0 2,-0.896 2,-2v-1.905c10.537,0.955 18.95,9.368 19.905,19.905h-1.905c-1.104,0 -2,0.896 -2,2c0,1.104 0.896,2 2,2h1.905c-0.955,10.537 -9.368,18.95 -19.905,19.905Z"></path></g></svg>