<svg width="18" height="18" viewBox="0 0 18 18" fill="none" xmlns="http://www.w3.org/2000/svg">
<path d="M16.9125 6.5008L11.8458 5.72971L9.58092 0.921406C9.51906 0.789757 9.41729 0.683184 9.29157 0.618405C8.97628 0.455412 8.59314 0.591239 8.43549 0.921406L6.17058 5.72971L1.10396 6.5008C0.964273 6.52169 0.836559 6.59065 0.738779 6.69513C0.620568 6.82237 0.555428 6.99354 0.557673 7.17104C0.559918 7.34854 0.629365 7.51784 0.750752 7.64175L4.41652 11.3843L3.55046 16.6691C3.53016 16.792 3.54315 16.9184 3.58796 17.034C3.63278 17.1496 3.70763 17.2498 3.80403 17.3231C3.90043 17.3964 4.01452 17.44 4.13335 17.4488C4.25219 17.4577 4.37103 17.4315 4.47639 17.3733L9.00821 14.8782L13.54 17.3733C13.6638 17.4423 13.8074 17.4652 13.9451 17.4402C14.2923 17.3775 14.5258 17.0327 14.466 16.6691L13.5999 11.3843L17.2657 7.64175C17.3654 7.53936 17.4313 7.40562 17.4512 7.25934C17.5051 6.89365 17.2617 6.55513 16.9125 6.5008Z" fill="#FFC107"/>
</svg>
